# xmcd
#
# Track frame offsets: 
#        150
#        17731
#        31065
#        51389
#        66279
#        82651
#        106631
#        126105
#        139979
#        160790
#        174893
#
# Disc length: 3033 seconds
#
# Revision: 0
# Processed by: cddbd v1.4PL0 Copyright (c) Steve Scherf et al.
# Submitted via: ExactAudioCopy v0.90b4
#
DISCID=800bd70b
DTITLE=Nicole Fournier - Not Forgotten
DYEAR=2002
DGENRE=Blues
TTITLE0=Not Forgotten
TTITLE1=Self Respectin'  Woman
TTITLE2=Maybe Someday
TTITLE3=Eyes of Avoidance
TTITLE4=Forbidden Fruit
TTITLE5=Tick-Tock
TTITLE6=Leaving' Paradise
TTITLE7=Big Something
TTITLE8=Old Man on the Corner
TTITLE9=My Bones
TTITLE10=Reach Out
EXTD=
EXTT0=
EXTT1=
EXTT2=
EXTT3=
EXTT4=
EXTT5=
EXTT6=
EXTT7=
EXTT8=
EXTT9=
EXTT10=
PLAYORDER=
